<?xml version="1.0" encoding="UTF-8"?>
<svg version="1.1" xmlns="http://www.w3.org/2000/svg" width="801" height="800">
<path d="M0 0 C1.47861127 1.45889645 2.93970868 2.93596446 4.375 4.4375 C5.19484375 5.2109375 5.19484375 5.2109375 6.03125 6 C16.99713577 17.19920249 21.59799188 34.02359322 21.5625 49.1875 C21.52536658 51.93919559 21.45752642 54.68661942 21.375 57.4375 C21.9834375 57.3653125 22.591875 57.293125 23.21875 57.21875 C44.02793966 55.01542404 63.10147601 56.25228356 80.19140625 69.64453125 C86.4558922 75.12478945 92.46682897 80.52081221 95.375 88.4375 C96.22320312 88.16035156 97.07140625 87.88320312 97.9453125 87.59765625 C117.18053458 81.65798877 135.18121264 82.52019312 153.24609375 91.93359375 C166.00061526 99.47775754 173.79460254 109.52182017 180.375 122.4375 C181.64730469 122.2209375 181.64730469 122.2209375 182.9453125 122 C203.40542731 118.76235546 221.80054134 120.44982602 239.2421875 132.40234375 C254.66527525 144.21531816 262.81721977 160.40335213 265.375 179.4375 C266.28378262 187.98258103 264.23285057 196.14352423 262.375 204.4375 C268.50229388 203.54024695 274.49932463 202.43763371 280.48681641 200.86425781 C298.96492255 196.09598653 316.77828865 197.8291026 333.40234375 207.44921875 C338.19761838 210.65657064 342.33531844 214.33159415 346.375 218.4375 C346.94863281 219.01242187 347.52226563 219.58734375 348.11328125 220.1796875 C358.7260095 231.64253093 363.58437612 247.33104581 363.5 262.6875 C363.50386719 263.40679687 363.50773438 264.12609375 363.51171875 264.8671875 C363.50176222 270.18397556 363.50176222 270.18397556 362.375 272.4375 C363.15101563 272.45167969 363.92703125 272.46585937 364.7265625 272.48046875 C383.41299614 273.30552608 398.57319367 281.70068538 411.08984375 295.30078125 C422.09666622 308.93522712 427.03449386 326.05942943 425.375 343.4375 C423.3435997 356.44102924 418.44390044 367.99539355 410.375 378.4375 C411.11105469 378.71335937 411.84710937 378.98921875 412.60546875 379.2734375 C425.89542086 384.85934121 435.46961233 396.30086511 441.19335938 409.29541016 C448.08490991 426.35155483 448.62916096 444.370825 441.54541016 461.43603516 C437.93025755 469.4207218 433.50516011 476.08464566 427.35546875 482.38671875 C425.50284206 484.30511917 423.9250597 486.27132825 422.375 488.4375 C422.77332031 489.19933594 423.17164063 489.96117187 423.58203125 490.74609375 C432.38852565 507.90911568 435.22104663 524.87383506 429.6953125 543.61328125 C426.20906455 554.25142494 420.27364701 562.6245526 412.375 570.4375 C411.85808594 570.98792969 411.34117187 571.53835938 410.80859375 572.10546875 C404.88565426 577.8737623 396.7778982 581.00640732 389.375 584.4375 C388.29686035 584.93765625 387.2187207 585.4378125 386.10791016 585.953125 C373.42169109 591.80428438 360.74525437 597.53432214 347.56225586 602.19213867 C343.30027651 603.70222933 339.21084754 605.35954956 335.125 607.3125 C322.44862284 613.36038987 309.13446083 618.09867332 295.9375 622.875 C284.58604839 626.99495852 273.4835424 631.70868962 262.375 636.4375 C261.59431152 636.76782227 260.81362305 637.09814453 260.00927734 637.43847656 C252.16701084 640.7631282 244.50494987 644.32737627 236.91137695 648.18505859 C223.46947644 654.96930067 209.64796125 661.00291371 195.8762207 667.07983398 C183.27007409 672.62719904 183.27007409 672.62719904 170.875 678.625 C169.9627063 679.087854 169.9627063 679.087854 169.03198242 679.56005859 C167.8054658 680.18385511 166.57914882 680.80804433 165.35302734 681.43261719 C144.84348017 691.85193293 126.07164528 698.51371492 103.19921875 691.7578125 C89.04804372 687.12030183 78.87248249 678.16268711 69.96875 666.50390625 C68.39464811 664.37176672 68.39464811 664.37176672 66.375 662.4375 C63.3171093 662.69026919 60.39666335 663.06912226 57.375 663.5625 C56.45017822 663.70429687 55.52535645 663.84609375 54.57250977 663.9921875 C52.56337495 664.30146462 50.55501608 664.61581447 48.54736328 664.93457031 C45.33396812 665.44400498 42.11863333 665.93887911 38.90234375 666.4296875 C34.50460444 667.10161424 30.1074392 667.77705206 25.7109375 668.45703125 C24.64713867 668.62154785 23.58333984 668.78606445 22.48730469 668.95556641 C20.47484962 669.26719068 18.46247421 669.57932997 16.45019531 669.89208984 C-0.17163955 672.47013468 -0.17163955 672.47013468 -6.125 672.875 C-11.21728284 673.2648779 -16.13158969 674.28265339 -21.125 675.3125 C-30.91989845 677.33192507 -40.71953739 679.0559705 -50.625 680.4375 C-51.37007812 680.54336426 -52.11515625 680.64922852 -52.8828125 680.75830078 C-77.25577501 684.10746005 -103.39609431 685.8752948 -124.625 671.4375 C-137.78123947 661.36886798 -147.49990592 647.9152688 -150.625 631.4375 C-150.75 628.4375 -150.75 628.4375 -150.625 626.4375 C-151.429375 626.746875 -152.23375 627.05625 -153.0625 627.375 C-170.1412467 632.4686613 -189.71657269 630.19715895 -205.5 622.25 C-211.61700475 618.71017197 -216.66781475 614.44906023 -221.625 609.4375 C-222.17542969 608.92058594 -222.72585937 608.40367187 -223.29296875 607.87109375 C-233.79001621 597.0926241 -238.60875395 580.59648738 -239 566 C-238.78026945 555.88193141 -236.76944236 546.63189314 -232.625 537.4375 C-234.29175781 536.61958984 -234.29175781 536.61958984 -235.9921875 535.78515625 C-244.92597714 531.29966821 -252.74234207 526.84862527 -259.625 519.4375 C-260.34042969 518.66792969 -261.05585938 517.89835938 -261.79296875 517.10546875 C-272.73474229 504.39823081 -277.35240619 488.56463072 -276.90625 471.9453125 C-275.32922599 452.27631866 -266.43293566 438.77202072 -252.625 425.4375 C-251.62279006 424.43971483 -250.62183045 423.44065953 -249.625 422.4375 C-250.71167969 422.07978516 -250.71167969 422.07978516 -251.8203125 421.71484375 C-263.64726248 416.32847516 -271.11841608 401.94265255 -275.625 390.39453125 C-280.52865275 375.89427681 -280.07842089 359.74136854 -274.625 345.4375 C-273.45302366 343.33349937 -272.24660558 341.24816051 -271 339.1875 C-268.7401968 335.03677549 -268.7401968 335.03677549 -269.47265625 330.5234375 C-270.55739612 328.50320943 -271.69578677 326.51110776 -272.87890625 324.546875 C-279.36395761 312.99855087 -279.30087251 296.10108551 -276.625 283.3125 C-272.98574114 271.06826458 -266.89725309 260.25374064 -257.625 251.4375 C-256.76455078 250.58285156 -256.76455078 250.58285156 -255.88671875 249.7109375 C-246.71127967 241.17055267 -233.87398095 236.63339507 -222.625 231.4375 C-222.65980469 230.44492187 -222.69460937 229.45234375 -222.73046875 228.4296875 C-223.09889002 213.57494209 -220.33742372 201.80795951 -213.26953125 188.73828125 C-211.40202897 185.60459724 -211.40202897 185.60459724 -211.625 182.4375 C-212.93214596 180.73093569 -212.93214596 180.73093569 -214.6875 179 C-226.10959821 166.32933235 -231.01268204 150.62599387 -230.84375 133.75390625 C-230.21190771 124.17472582 -227.57836621 115.14694638 -223.625 106.4375 C-224.20636719 106.17839844 -224.78773438 105.91929687 -225.38671875 105.65234375 C-236.82592796 99.4436281 -243.64228872 85.23005918 -247.625 73.4375 C-252.33997101 56.39484437 -249.74985931 39.06119055 -241.5078125 23.62890625 C-232.38671573 8.168458 -218.84939374 -1.87376496 -201.6328125 -6.8359375 C-196.0700941 -8.17965909 -190.79329563 -8.70445664 -185.0703125 -8.80859375 C-183.56973765 -8.84016792 -182.06916819 -8.87199869 -180.56860352 -8.90405273 C-179.78381622 -8.91943085 -178.99902893 -8.93480896 -178.19046021 -8.95065308 C-159.9554567 -9.31937096 -141.81887373 -10.28452282 -123.625 -11.5625 C-118.50022048 -11.91993773 -113.37526607 -12.27460522 -108.25 -12.625 C-107.02168457 -12.70927246 -105.79336914 -12.79354492 -104.52783203 -12.88037109 C-95.11357108 -13.5074878 -85.70100344 -13.91733196 -76.27172852 -14.23632812 C-71.06037245 -14.41556651 -65.8825178 -14.65391526 -60.6875 -15.125 C-38.65652857 -16.95093649 -17.29648056 -15.19285455 0 0 Z " fill="#FEFEFE" transform="translate(315.625,75.5625)"/>
<path d="M0 0 C0 0.66 0 1.32 0 2 C3.96 2.495 3.96 2.495 8 3 C8 3.66 8 4.32 8 5 C8.94875 5.12375 9.8975 5.2475 10.875 5.375 C14 6 14 6 16 8 C18.06874034 8.6425235 18.06874034 8.6425235 20 9 C20 9.66 20 10.32 20 11 C22.31 11.33 24.62 11.66 27 12 C27 12.66 27 13.32 27 14 C28.98 14.33 30.96 14.66 33 15 C33 15.66 33 16.32 33 17 C34.98 17.33 36.96 17.66 39 18 C39 18.66 39 19.32 39 20 C40.98 20.33 42.96 20.66 45 21 C45 21.66 45 22.32 45 23 C46.98 23.33 48.96 23.66 51 24 C51 24.66 51 25.32 51 26 C52.65 26.33 54.3 26.66 56 27 C56 27.66 56 28.32 56 29 C57.98 29.33 59.96 29.66 62 30 C62 30.66 62 31.32 62 32 C63.32 32.33 64.64 32.66 66 33 C66 33.66 66 34.32 66 35 C67.98 35.33 69.96 35.66 72 36 C72 36.66 72 37.32 72 38 C72.7425 38.28875 73.485 38.5775 74.25 38.875 C76.56739797 39.82302644 78.77917115 40.84845911 81 42 C81 42.66 81 43.32 81 44 C81.7425 44.28875 82.485 44.5775 83.25 44.875 C85.56739797 45.82302644 87.77917115 46.84845911 90 48 C90 48.66 90 49.32 90 50 C90.515625 50.226875 91.03125 50.45375 91.5625 50.6875 C94.89547005 52.48217618 98.14703671 54.49965015 101 57 C101 57.66 101 58.32 101 59 C102.32 59.33 103.64 59.66 105 60 C105 60.66 105 61.32 105 62 C105.99 62.33 106.98 62.66 108 63 C108 63.66 108 64.32 108 65 C108.73476563 65.06832031 109.46953125 65.13664062 110.2265625 65.20703125 C113.82171622 66.2349414 115.0066347 67.82750653 117.375 70.6875 C119.99056443 73.7404353 122.50436834 76.58772966 125.625 79.125 C128.83219344 81.75711048 131.47626131 84.67867528 134.15625 87.83984375 C136.85683892 91.00388119 139.68295936 94.05316636 142.49609375 97.1171875 C144 99 144 99 144 101 C144.66 101 145.32 101 146 101 C146.95961601 102.33660802 147.90560803 103.68505823 148.78125 105.078125 C149.68637073 106.50543077 150.63025394 107.90830715 151.59375 109.296875 C152.1403125 110.08578125 152.686875 110.8746875 153.25 111.6875 C153.77078125 112.43386719 154.2915625 113.18023437 154.828125 113.94921875 C156 116 156 116 156 119 C156.99 119.33 157.98 119.66 159 120 C159.33 121.98 159.66 123.96 160 126 C160.66 126 161.32 126 162 126 C162.33 127.98 162.66 129.96 163 132 C163.66 132 164.32 132 165 132 C165 132.99 165 133.98 165 135 C165.66 135 166.32 135 167 135 C167.66 137.97 168.32 140.94 169 144 C169.66 144 170.32 144 171 144 C171 145.65 171 147.3 171 149 C171.66 149 172.32 149 173 149 C173.33 151.31 173.66 153.62 174 156 C174.66 156 175.32 156 176 156 C176.33 159.63 176.66 163.26 177 167 C177.66 167 178.32 167 179 167 C179.91657981 172.38490641 180.11138159 177.54230189 180 183 C180.66 183 181.32 183 182 183 C184.60404458 220.2471377 184.60404458 220.2471377 182 236 C181.67 236.33 181.34 236.66 181 237 C180.79300437 238.49496842 180.63320741 239.9966592 180.5 241.5 C180.11111111 245.88888889 180.11111111 245.88888889 179 247 C178.70569228 248.33630117 178.46338167 249.68419222 178.24609375 251.03515625 C178.11396484 251.84404297 177.98183594 252.65292969 177.84570312 253.48632812 C177.71099609 254.33646484 177.57628906 255.18660156 177.4375 256.0625 C177.22963867 257.34350586 177.22963867 257.34350586 177.01757812 258.65039062 C176.67476995 260.76634451 176.33692384 262.88310118 176 265 C175.34 265 174.68 265 174 265 C173.67 267.97 173.34 270.94 173 274 C172.34 274 171.68 274 171 274 C170.67 276.64 170.34 279.28 170 282 C169.34 282 168.68 282 168 282 C167.86722656 282.56203125 167.73445312 283.1240625 167.59765625 283.703125 C166.97562889 286.09366153 166.22884959 288.41035775 165.4375 290.75 C165.16808594 291.54921875 164.89867187 292.3484375 164.62109375 293.171875 C164.31365234 294.07679688 164.31365234 294.07679688 164 295 C163.34 295 162.68 295 162 295 C161.67 296.98 161.34 298.96 161 301 C160.34 301 159.68 301 159 301 C158.67 302.65 158.34 304.3 158 306 C157.34 306 156.68 306 156 306 C155.67 307.32 155.34 308.64 155 310 C154.34 310 153.68 310 153 310 C152.67 311.98 152.34 313.96 152 316 C151.34 316 150.68 316 150 316 C149.731875 316.763125 149.46375 317.52625 149.1875 318.3125 C148.0249027 320.94364126 147.02708537 322.05737652 145 324 C143.82425289 326.09989652 143.82425289 326.09989652 143 328 C142.34 328 141.68 328 141 328 C140.67 328.99 140.34 329.98 140 331 C139.34 331 138.68 331 138 331 C137.67 332.65 137.34 334.3 137 336 C136.38125 336.0825 135.7625 336.165 135.125 336.25 C132.85609195 336.78597843 132.85609195 336.78597843 132 338.8125 C131.67 339.534375 131.34 340.25625 131 341 C129 343.25 129 343.25 127 345 C126.34 345 125.68 345 125 345 C125 345.99 125 346.98 125 348 C123.35 348.33 121.7 348.66 120 349 C119.67 349.99 119.34 350.98 119 352 C118.34 352 117.68 352 117 352 C117 352.66 117 353.32 117 354 C115.625 355.625 115.625 355.625 114 357 C113.34 357 112.68 357 112 357 C112 357.66 112 358.32 112 359 C110.3203125 360.2890625 110.3203125 360.2890625 108.125 361.625 C107.40570312 362.07101562 106.68640625 362.51703125 105.9453125 362.9765625 C104 364 104 364 102 364 C101.67 364.99 101.34 365.98 101 367 C100.34 367 99.68 367 99 367 C99 367.66 99 368.32 99 369 C96.69 369.66 94.38 370.32 92 371 C92 371.66 92 372.32 92 373 C89.09451118 375.04169485 87.59857954 376 84 376 C83.67 376.99 83.34 377.98 83 379 C81.02 379.33 79.04 379.66 77 380 C77 380.66 77 381.32 77 382 C76.34 382 75.68 382 75 382 C75 382.66 75 383.32 75 384 C73.02 384.33 71.04 384.66 69 385 C69 385.66 69 386.32 69 387 C67.02 387.33 65.04 387.66 63 388 C63 388.66 63 389.32 63 390 C61.02 390.33 59.04 390.66 57 391 C57 391.66 57 392.32 57 393 C55.02 393.33 53.04 393.66 51 394 C51 394.66 51 395.32 51 396 C48.69 396.33 46.38 396.66 44 397 C44 397.66 44 398.32 44 399 C41.36 399.33 38.72 399.66 36 400 C36 400.66 36 401.32 36 402 C33.44013121 402.84226 30.87760985 403.67398551 28.3125 404.5 C27.59126953 404.73847656 26.87003906 404.97695313 26.12695312 405.22265625 C22.30592343 406.44398994 19.06557944 407.32075577 15 407 C15 407.66 15 408.32 15 409 C13.68 409 12.36 409 11 409 C11 409.66 11 410.32 11 411 C7.04 411.33 3.08 411.66 -1 412 C-1 412.66 -1 413.32 -1 414 C-4.63 414.33 -8.26 414.66 -12 415 C-12 415.66 -12 416.32 -12 417 C-16.29 417.33 -20.58 417.66 -25 418 C-25 418.66 -25 419.32 -25 420 C-29.95 420.33 -34.9 420.66 -40 421 C-40 421.66 -40 422.32 -40 423 C-45.72040011 423.8320582 -51.22240116 424.12036664 -57 424 C-57 424.66 -57 425.32 -57 426 C-58.0372522 426.08302368 -58.0372522 426.08302368 -59.09545898 426.16772461 C-62.20987214 426.41963531 -65.32367095 426.67847351 -68.4375 426.9375 C-69.52611328 427.02451172 -70.61472656 427.11152344 -71.73632812 427.20117188 C-72.77080078 427.28818359 -73.80527344 427.37519531 -74.87109375 427.46484375 C-75.82943115 427.543396 -76.78776855 427.62194824 -77.77514648 427.70288086 C-79.96909889 427.76667071 -79.96909889 427.76667071 -81 429 C-93.84130056 430.7810708 -107.07464187 430.09895739 -120 430 C-120 430.66 -120 431.32 -120 432 C-128.19690561 432.0231271 -136.39379768 432.04091696 -144.59072781 432.05181217 C-148.39651577 432.0570402 -152.20228148 432.06413638 -156.00805664 432.07543945 C-159.67792544 432.0862712 -163.34777278 432.09227744 -167.01765633 432.09487724 C-168.42074992 432.09673097 -169.82384229 432.1003506 -171.2269268 432.10573006 C-173.1856968 432.11294419 -175.1444882 432.11340809 -177.10327148 432.11352539 C-178.22023911 432.115746 -179.33720673 432.11796661 -180.48802185 432.12025452 C-183 432 -183 432 -184 431 C-186.66235998 430.76858138 -189.30482908 430.59643291 -191.97265625 430.46484375 C-193.16912025 430.40037804 -193.16912025 430.40037804 -194.38975525 430.33460999 C-196.94712559 430.19783674 -199.50478242 430.06760217 -202.0625 429.9375 C-203.79234043 429.84613234 -205.52215855 429.75434106 -207.25195312 429.66210938 C-211.50105831 429.43648282 -215.75043168 429.21672136 -220 429 C-220 428.34 -220 427.68 -220 427 C-220.68964844 427.01160156 -221.37929688 427.02320313 -222.08984375 427.03515625 C-228.15472396 427.09339241 -233.99401983 426.87183583 -240 426 C-240.33 425.67 -240.66 425.34 -241 425 C-243.52195967 424.60056824 -246.02963656 424.24920152 -248.5625 423.9375 C-249.27341797 423.84662109 -249.98433594 423.75574219 -250.71679688 423.66210938 C-252.47738403 423.43760497 -254.23863478 423.21831603 -256 423 C-256 422.34 -256 421.68 -256 421 C-260.29 420.67 -264.58 420.34 -269 420 C-269 419.34 -269 418.68 -269 418 C-272.96 417.67 -276.92 417.34 -281 417 C-281 416.34 -281 415.68 -281 415 C-281.66386719 414.95101563 -282.32773437 414.90203125 -283.01171875 414.8515625 C-287.7199525 414.45290913 -291.66393247 413.9822023 -296 412 C-297.65919896 411.63128912 -299.3247643 411.28718326 -301 411 C-301 410.34 -301 409.68 -301 409 C-301.969375 408.896875 -302.93875 408.79375 -303.9375 408.6875 C-308.48593839 408.05370121 -312.69417104 406.55244173 -317 405 C-317 404.34 -317 403.68 -317 403 C-319.64 402.67 -322.28 402.34 -325 402 C-325 401.34 -325 400.68 -325 400 C-325.7425 399.87625 -326.485 399.7525 -327.25 399.625 C-329.80141485 399.04513299 -331.7267573 398.26291261 -334 397 C-334 396.34 -334 395.68 -334 395 C-336.97 394.34 -339.94 393.68 -343 393 C-343 392.34 -343 391.68 -343 391 C-343.99 391 -344.98 391 -346 391 C-346 390.34 -346 389.68 -346 389 C-346.78375 388.855625 -347.5675 388.71125 -348.375 388.5625 C-351 388 -351 388 -353 387 C-353 386.34 -353 385.68 -353 385 C-353.87398437 384.82017578 -353.87398437 384.82017578 -354.765625 384.63671875 C-360.93427745 382.87886849 -366.27218356 378.14278454 -371.23828125 374.234375 C-373.09151563 372.81094033 -373.09151563 372.81094033 -376 372 C-377.61328125 370.328125 -377.61328125 370.328125 -379.3125 368.25 C-382.30886888 364.70883678 -385.37640232 361.88240725 -389 359 C-390 358 -391 357 -392 356 C-392.99 355.34 -393.98 354.68 -395 354 C-395 353.34 -395 352.68 -395 352 C-395.66 352 -396.32 352 -397 352 C-398.00648419 350.33724104 -399.0051562 348.66974956 -400 347 C-401.49733238 345.39496476 -403.04096856 343.83203505 -404.625 342.3125 C-409.91104081 337.22318886 -409.91104081 337.22318886 -410.25 332.5625 C-410 329 -410 329 -408.9375 327.0625 C-405.78483383 325.33361855 -403.52226599 325.51417021 -400 326 C-396.63813777 328.68948978 -394.88984627 331.22030745 -393 335 C-392.01 335.33 -391.02 335.66 -390 336 C-390 336.66 -390 337.32 -390 338 C-389.01 338.33 -388.02 338.66 -387 339 C-387 339.66 -387 340.32 -387 341 C-386.34 341 -385.68 341 -385 341 C-384.505 342.98 -384.505 342.98 -384 345 C-383.01 345 -382.02 345 -381 345 C-381 345.66 -381 346.32 -381 347 C-380.01 347.33 -379.02 347.66 -378 348 C-378 348.66 -378 349.32 -378 350 C-377.01 350.33 -376.02 350.66 -375 351 C-375 351.66 -375 352.32 -375 353 C-374.01 353.33 -373.02 353.66 -372 354 C-372 354.66 -372 355.32 -372 356 C-370.88625 356.37125 -370.88625 356.37125 -369.75 356.75 C-366.78209456 358.09904793 -365.24467077 359.68050687 -363 362 C-362.01 362.33 -361.02 362.66 -360 363 C-360 363.66 -360 364.32 -360 365 C-359.195625 365.12375 -358.39125 365.2475 -357.5625 365.375 C-356.2940625 365.684375 -356.2940625 365.684375 -355 366 C-354.67 366.66 -354.34 367.32 -354 368 C-353.01 368.33 -352.02 368.66 -351 369 C-351 369.66 -351 370.32 -351 371 C-350.195625 371.12375 -349.39125 371.2475 -348.5625 371.375 C-347.2940625 371.684375 -347.2940625 371.684375 -346 372 C-345.67 372.66 -345.34 373.32 -345 374 C-344.01 374.33 -343.02 374.66 -342 375 C-342 375.66 -342 376.32 -342 377 C-340.02 377.33 -338.04 377.66 -336 378 C-336 378.66 -336 379.32 -336 380 C-335.484375 380.103125 -334.96875 380.20625 -334.4375 380.3125 C-331.13973565 381.24263866 -328.13366668 382.61395512 -325 384 C-325 384.66 -325 385.32 -325 386 C-324.360625 386.0825 -323.72125 386.165 -323.0625 386.25 C-319.59707217 387.0986762 -316.63510694 388.46852826 -313.40234375 389.953125 C-309.68718557 391.57208824 -305.86003416 392.7783787 -302 394 C-300 394.66666667 -298 395.33333333 -296 396 C-296 396.66 -296 397.32 -296 398 C-292.7 398.33 -289.4 398.66 -286 399 C-286 399.66 -286 400.32 -286 401 C-282.7 401.33 -279.4 401.66 -276 402 C-276 402.66 -276 403.32 -276 404 C-272.04 404.33 -268.08 404.66 -264 405 C-264 405.66 -264 406.32 -264 407 C-262.2365625 406.9690625 -262.2365625 406.9690625 -260.4375 406.9375 C-256.52586533 406.93052739 -252.85502056 407.35749657 -249 408 C-249 408.66 -249 409.32 -249 410 C-242.73 410.33 -236.46 410.66 -230 411 C-230 411.66 -230 412.32 -230 413 C-229.22398437 412.98839844 -228.44796875 412.97679687 -227.6484375 412.96484375 C-219.38527392 412.89581971 -211.23291573 413.30878069 -203 414 C-203 414.66 -203 415.32 -203 416 C-191.8198316 416.02331768 -180.63966913 416.04101306 -169.45948124 416.05181217 C-164.26635432 416.05699893 -159.07324421 416.06401877 -153.88012695 416.07543945 C-148.85505957 416.08641959 -143.8300082 416.09230839 -138.80492973 416.09487724 C-136.90150132 416.09670455 -134.99807364 416.10027176 -133.09465218 416.10573006 C-123.80227067 416.13128241 -114.53581453 416.07310402 -105.25561523 415.55639648 C-104.53346108 415.51754113 -103.81130693 415.47868578 -103.06726933 415.43865299 C-99.74566358 415.48770669 -99.74566358 415.48770669 -97 414 C-87.36852254 412.8425079 -77.68276157 412.87794838 -68 413 C-68 412.34 -68 411.68 -68 411 C-60.63959083 410.20274098 -53.40239645 409.87113817 -46 410 C-46 409.34 -46 408.68 -46 408 C-44.92878906 407.86722656 -43.85757812 407.73445313 -42.75390625 407.59765625 C-41.35674231 407.4194944 -39.95960841 407.24109681 -38.5625 407.0625 C-37.85544922 406.97548828 -37.14839844 406.88847656 -36.41992188 406.79882812 C-32.91182032 406.61783809 -32.91182032 406.61783809 -30 405 C-27.81707226 404.76518307 -25.62796826 404.58636677 -23.4375 404.4375 C-22.23996094 404.35371094 -21.04242187 404.26992188 -19.80859375 404.18359375 C-18.88175781 404.12300781 -17.95492188 404.06242187 -17 404 C-17 403.34 -17 402.68 -17 402 C-13.04 401.67 -9.08 401.34 -5 401 C-5 400.34 -5 399.68 -5 399 C-1.7 398.67 1.6 398.34 5 398 C5 397.34 5 396.68 5 396 C6.2375 395.773125 7.475 395.54625 8.75 395.3125 C13.87570146 394.20139066 18.44701002 392.20017795 23.203125 390.0234375 C26.02540212 388.99070481 28.02542438 388.79373381 31 389 C31 388.34 31 387.68 31 387 C33.31 386.67 35.62 386.34 38 386 C38 385.34 38 384.68 38 384 C40.31 383.67 42.62 383.34 45 383 C45 382.34 45 381.68 45 381 C48.3 380.34 51.6 379.68 55 379 C55 378.34 55 377.68 55 377 C55.99 377 56.98 377 58 377 C58 376.34 58 375.68 58 375 C59.98 374.67 61.96 374.34 64 374 C64 373.34 64 372.68 64 372 C65.98 371.67 67.96 371.34 70 371 C70.33 370.01 70.66 369.02 71 368 C71.99 368 72.98 368 74 368 C74 367.34 74 366.68 74 366 C74.53109375 365.74605469 75.0621875 365.49210937 75.609375 365.23046875 C79.35339245 363.40628507 82.72585688 361.5967342 86 359 C90.55555556 356 90.55555556 356 94 356 C94.33 355.01 94.66 354.02 95 353 C95.66 353 96.32 353 97 353 C97 352.34 97 351.68 97 351 C98.63183107 349.94410931 100.30792999 348.9563874 102 348 C106.59684477 345.12988146 106.59684477 345.12988146 110 341 C110.66 341 111.32 341 112 341 C112.33 340.01 112.66 339.02 113 338 C113.66 338 114.32 338 115 338 C115.33 337.01 115.66 336.02 116 335 C116.66 335 117.32 335 118 335 C118.33 334.01 118.66 333.02 119 332 C119.66 332 120.32 332 121 332 C121.33 331.01 121.66 330.02 122 329 C122.66 329 123.32 329 124 329 C124.33 328.01 124.66 327.02 125 326 C125.66 326 126.32 326 127 326 C127.33 325.01 127.66 324.02 128 323 C128.66 323 129.32 323 130 323 C130.2475 322.2575 130.495 321.515 130.75 320.75 C132.09904793 317.78209456 133.68050687 316.24467077 136 314 C136.33 313.01 136.66 312.02 137 311 C137.66 311 138.32 311 139 311 C139.28875 310.2575 139.5775 309.515 139.875 308.75 C140.82302644 306.43260203 141.84845911 304.22082885 143 302 C143.66 302 144.32 302 145 302 C145.103125 301.484375 145.20625 300.96875 145.3125 300.4375 C146.24263866 297.13973565 147.61395512 294.13366668 149 291 C149.66 291 150.32 291 151 291 C151.09410156 290.30390625 151.18820312 289.6078125 151.28515625 288.890625 C152.14298641 285.42180358 153.64392377 282.83748673 155.4375 279.75 C158.38513585 274.44063133 160.08740595 269.98256097 161 264 C161.66 264 162.32 264 163 264 C163.33 260.37 163.66 256.74 164 253 C164.66 253 165.32 253 166 253 C166.33 247.72 166.66 242.44 167 237 C167.66 237 168.32 237 169 237 C169 220.17 169 203.34 169 186 C168.34 186 167.68 186 167 186 C166.04738513 181.23692563 165.91666643 176.8333472 166 172 C165.34 172 164.68 172 164 172 C163.66179834 170.4176994 163.32964061 168.83410625 163 167.25 C162.814375 166.36828125 162.62875 165.4865625 162.4375 164.578125 C162 162 162 162 162 158 C161.34 158 160.68 158 160 158 C157.85714286 150.57142857 157.85714286 150.57142857 157 147 C156.34 147 155.68 147 155 147 C154.16013916 145.06532058 153.32831973 143.12714871 152.5 141.1875 C152.0359375 140.10855469 151.571875 139.02960938 151.09375 137.91796875 C150 135 150 135 150 132 C149.34 132 148.68 132 148 132 C147.60167969 131.25234375 147.20335937 130.5046875 146.79296875 129.734375 C145.99826172 128.25710938 145.99826172 128.25710938 145.1875 126.75 C144.40439453 125.28820312 144.40439453 125.28820312 143.60546875 123.796875 C142.09244481 121.02207169 142.09244481 121.02207169 140.30078125 118.765625 C139 117 139 117 139 115 C138.01 114.67 137.02 114.34 136 114 C136 113.34 136 112.68 136 112 C135.34 112 134.68 112 134 112 C132.98648336 110.34151823 131.98879205 108.67334039 131 107 C130.278125 106.29875 129.55625 105.5975 128.8125 104.875 C127 103 127 103 127 100 C126.01 99.67 125.02 99.34 124 99 C124 98.34 124 97.68 124 97 C123.071875 96.62875 123.071875 96.62875 122.125 96.25 C119.61289704 94.77229238 119.23892656 93.56044823 118 91 C117.01 90.67 116.02 90.34 115 90 C115 89.34 115 88.68 115 88 C114.01 87.67 113.02 87.34 112 87 C112 86.34 112 85.68 112 85 C111.01 84.67 110.02 84.34 109 84 C109 83.34 109 82.68 109 82 C108.01 81.67 107.02 81.34 106 81 C106 80.34 106 79.68 106 79 C105.01 79 104.02 79 103 79 C100.66979094 76.84455661 98.53335067 74.57437765 96.375 72.25 C94.90383382 70.74340914 94.90383382 70.74340914 92 70 C90.9171875 68.88625 90.9171875 68.88625 89.8125 67.75 C86.91591257 64.91778118 84.07182501 63.09805966 80.57421875 61.11328125 C80.05472656 60.74589844 79.53523438 60.37851562 79 60 C79 59.34 79 58.68 79 58 C77.35 57.67 75.7 57.34 74 57 C74 56.34 74 55.68 74 55 C72.68 54.67 71.36 54.34 70 54 C70 53.34 70 52.68 70 52 C69.13375 51.814375 69.13375 51.814375 68.25 51.625 C65.97664233 50.99351176 64.0746471 50.11141809 62 49 C62 48.34 62 47.68 62 47 C61.41992188 46.88527344 60.83984375 46.77054687 60.2421875 46.65234375 C57.82628793 45.94946008 56.20248807 44.96835036 54.125 43.5625 C50.85332296 41.44264933 47.78494999 40.04086125 44 39 C44 38.34 44 37.68 44 37 C42.02 36.67 40.04 36.34 38 36 C38 35.34 38 34.68 38 34 C36.02 33.67 34.04 33.34 32 33 C32 32.34 32 31.68 32 31 C30.02 30.67 28.04 30.34 26 30 C26 29.34 26 28.68 26 28 C25.01 28 24.02 28 23 28 C23 27.34 23 26.68 23 26 C21.02 25.67 19.04 25.34 17 25 C17 24.34 17 23.68 17 23 C13.7 22.34 10.4 21.68 7 21 C7 20.34 7 19.68 7 19 C5.02 18.67 3.04 18.34 1 18 C1 17.34 1 16.68 1 16 C-2.96 15.505 -2.96 15.505 -7 15 C-7 14.34 -7 13.68 -7 13 C-7.99 13 -8.98 13 -10 13 C-11.125 5.375 -11.125 5.375 -10 2 C-6.3558226 -0.4294516 -4.28758728 -0.16179575 0 0 Z " fill="#0C0C0D" transform="translate(534,277)"/>
<path d="M0 0 C8.00945568 -0.30372936 14.69065285 -0.50848663 22 3 C22 3.66 22 4.32 22 5 C22.515625 5.103125 23.03125 5.20625 23.5625 5.3125 C26.86026435 6.24263866 29.86633332 7.61395512 33 9 C33 9.66 33 10.32 33 11 C34.98 11.33 36.96 11.66 39 12 C39 12.66 39 13.32 39 14 C39.804375 14.1546875 39.804375 14.1546875 40.625 14.3125 C43.62502044 15.18092697 46.2379535 16.55620296 49 18 C49 18.66 49 19.32 49 20 C51.64 20.33 54.28 20.66 57 21 C57 21.66 57 22.32 57 23 C58.98 23.33 60.96 23.66 63 24 C63 24.66 63 25.32 63 26 C64.98 26.33 66.96 26.66 69 27 C69 27.66 69 28.32 69 29 C71.64 29.33 74.28 29.66 77 30 C77 30.66 77 31.32 77 32 C80.96 32.495 80.96 32.495 85 33 C85 33.66 85 34.32 85 35 C88.96 35.495 88.96 35.495 93 36 C93 36.66 93 37.32 93 38 C94.01126953 38.19916016 94.01126953 38.19916016 95.04296875 38.40234375 C98.47217668 39.09543333 101.89208429 39.82727045 105.3125 40.5625 C107.19388672 40.96662109 107.19388672 40.96662109 109.11328125 41.37890625 C110.06589844 41.58386719 111.01851563 41.78882813 112 42 C112 42.66 112 43.32 112 44 C115.63 44.33 119.26 44.66 123 45 C123 45.66 123 46.32 123 47 C123.86882812 47.04898438 124.73765625 47.09796875 125.6328125 47.1484375 C126.78523438 47.22320312 127.93765625 47.29796875 129.125 47.375 C130.26195312 47.44460937 131.39890625 47.51421875 132.5703125 47.5859375 C135.99482678 47.99937544 138.7526077 48.8634127 142 50 C144.94468659 50.76772435 147.90869667 51.44626958 150.875 52.125 C151.65875 52.30675781 152.4425 52.48851562 153.25 52.67578125 C155.16607477 53.11974979 157.0829566 53.56023281 159 54 C159 54.66 159 55.32 159 56 C160.5778125 55.9690625 160.5778125 55.9690625 162.1875 55.9375 C165.32704904 55.98896802 167.96883396 56.26517187 171 57 C171 57.66 171 58.32 171 59 C175.29 59.33 179.58 59.66 184 60 C184 60.66 184 61.32 184 62 C189.94 62.495 189.94 62.495 196 63 C196 63.66 196 64.32 196 65 C199.63 65.33 203.26 65.66 207 66 C207 66.66 207 67.32 207 68 C210.3 68.33 213.6 68.66 217 69 C217 69.66 217 70.32 217 71 C218.258125 71.0825 219.51625 71.165 220.8125 71.25 C223.63443265 71.61959826 224.75012641 71.79697771 227 73.625 C228.3883929 76.92243314 228.39279359 79.46485766 228 83 C224.86556646 85.08962236 224.12996308 85.25367554 220.5625 85.1875 C219.80066406 85.18105469 219.03882813 85.17460937 218.25390625 85.16796875 C216.06062143 85.00451771 214.11129193 84.60116513 212 84 C212 83.34 212 82.68 212 82 C208.7 81.67 205.4 81.34 202 81 C202 80.34 202 79.68 202 79 C198.7 78.67 195.4 78.34 192 78 C192 77.34 192 76.68 192 76 C186.06 75.505 186.06 75.505 180 75 C180 74.34 180 73.68 180 73 C174.06 72.505 174.06 72.505 168 72 C168 71.34 168 70.68 168 70 C162.06 69.505 162.06 69.505 156 69 C156 68.34 156 67.68 156 67 C151.71 66.67 147.42 66.34 143 66 C143 65.34 143 64.68 143 64 C137.06 63.505 137.06 63.505 131 63 C131 62.34 131 61.68 131 61 C129.02 61 127.04 61 125 61 C125 60.34 125 59.68 125 59 C124.19175781 58.93941406 123.38351562 58.87882812 122.55078125 58.81640625 C121.48214844 58.73261719 120.41351563 58.64882812 119.3125 58.5625 C117.72888672 58.44068359 117.72888672 58.44068359 116.11328125 58.31640625 C113.34913703 58.03548319 110.71054259 57.59843148 108 57 C108 56.34 108 55.68 108 55 C106.02 55 104.04 55 102 55 C102 54.34 102 53.68 102 53 C100.783125 52.9175 99.56625 52.835 98.3125 52.75 C91.96369475 52.07049528 86.0349017 50.00541556 80 48 C80 47.34 80 46.68 80 46 C78.4221875 45.814375 78.4221875 45.814375 76.8125 45.625 C73.54041229 45.08859218 70.99463924 44.36119965 68 43 C68 42.34 68 41.68 68 41 C66.98421875 40.896875 65.9684375 40.79375 64.921875 40.6875 C60.8959824 39.98176584 57.91031425 38.78719569 54.25 37 C49.70795617 34.79589598 49.70795617 34.79589598 45 33 C45 32.34 45 31.68 45 31 C43.948125 30.8453125 43.948125 30.8453125 42.875 30.6875 C35.79361533 28.99412541 29.34534289 24.48880953 23 21 C23 20.34 23 19.68 23 19 C21.02 18.67 19.04 18.34 17 18 C17 17.34 17 16.68 17 16 C14.03 15.67 11.06 15.34 8 15 C8 14.34 8 13.68 8 13 C6.35 13 4.7 13 3 13 C3 13.66 3 14.32 3 15 C2.071875 15.3403125 2.071875 15.3403125 1.125 15.6875 C-1.61410209 17.37929835 -2.05024472 18.99244161 -3 22 C-3.66 22 -4.32 22 -5 22 C-5.33 25.96 -5.66 29.92 -6 34 C-6.66 34 -7.32 34 -8 34 C-8.33 37.63 -8.66 41.26 -9 45 C-9.66 45 -10.32 45 -11 45 C-11.33 47.31 -11.66 49.62 -12 52 C-12.66 52 -13.32 52 -14 52 C-14.33 54.64 -14.66 57.28 -15 60 C-15.66 60 -16.32 60 -17 60 C-17.33 61.98 -17.66 63.96 -18 66 C-18.66 66 -19.32 66 -20 66 C-20.33 67.98 -20.66 69.96 -21 72 C-21.66 72 -22.32 72 -23 72 C-23.1546875 73.0828125 -23.1546875 73.0828125 -23.3125 74.1875 C-24.06793947 77.27793421 -25.15531315 79.41743841 -27 82 C-27.66 82 -28.32 82 -29 82 C-29.1546875 82.8353125 -29.1546875 82.8353125 -29.3125 83.6875 C-30.14178408 86.4769101 -31.34299056 88.6139064 -33 91 C-33.66 91 -34.32 91 -35 91 C-35.37125 92.051875 -35.37125 92.051875 -35.75 93.125 C-37.17180238 96.39514548 -38.87246288 99.141122 -41 102 C-41.66 102 -42.32 102 -43 102 C-43.268125 102.721875 -43.53625 103.44375 -43.8125 104.1875 C-44.99901362 106.99766383 -46.27485639 109.48416557 -48 112 C-48.66 112 -49.32 112 -50 112 C-50 112.66 -50 113.32 -50 114 C-51.375 115.625 -51.375 115.625 -53 117 C-53.66 117 -54.32 117 -55 117 C-55.20625 117.680625 -55.4125 118.36125 -55.625 119.0625 C-57.42895027 122.91639375 -59.9010345 126.07787764 -63 129 C-63.66 129 -64.32 129 -65 129 C-65.33 130.32 -65.66 131.64 -66 133 C-66.66 133 -67.32 133 -68 133 C-68.33 133.99 -68.66 134.98 -69 136 C-69.66 136 -70.32 136 -71 136 C-71.33 136.99 -71.66 137.98 -72 139 C-72.66 139 -73.32 139 -74 139 C-74.33 139.99 -74.66 140.98 -75 142 C-75.66 142 -76.32 142 -77 142 C-77.33 143.65 -77.66 145.3 -78 147 C-78.99 147 -79.98 147 -81 147 C-81.226875 147.556875 -81.45375 148.11375 -81.6875 148.6875 C-83.35302319 151.62199324 -85.62221176 153.62221176 -88 156 C-88.33 156.99 -88.66 157.98 -89 159 C-89.99 159 -90.98 159 -92 159 C-92 159.99 -92 160.98 -92 162 C-93.875 164.1875 -93.875 164.1875 -96 166 C-96.66 166 -97.32 166 -98 166 C-98.33 166.99 -98.66 167.98 -99 169 C-99.66 169.33 -100.32 169.66 -101 170 C-102.13350534 172.01669827 -102.13350534 172.01669827 -103 174 C-103.99 174 -104.98 174 -106 174 C-106.103125 174.58523438 -106.20625 175.17046875 -106.3125 175.7734375 C-107.10782753 178.34921416 -108.18818612 179.64768389 -110 181.625 C-112.27217224 184.12374312 -112.27217224 184.12374312 -114 187 C-114.66 187 -115.32 187 -116 187 C-116.33 187.99 -116.66 188.98 -117 190 C-117.66 190 -118.32 190 -119 190 C-119.0825 190.5775 -119.165 191.155 -119.25 191.75 C-120.20918964 194.62756891 -121.83980195 195.9052625 -124 198 C-125.23512079 200.13309192 -125.23512079 200.13309192 -126 202 C-126.66 202 -127.32 202 -128 202 C-129.52299523 204.93720508 -130.80100302 207.9168649 -132 211 C-132.66 211 -133.32 211 -134 211 C-134.103125 211.515625 -134.20625 212.03125 -134.3125 212.5625 C-135.24263866 215.86026435 -136.61395512 218.86633332 -138 222 C-138.66 222 -139.32 222 -140 222 C-140.103125 222.53625 -140.20625 223.0725 -140.3125 223.625 C-141.18092697 226.62502044 -142.55620296 229.2379535 -144 232 C-144.66 232 -145.32 232 -146 232 C-146.13277344 232.55171875 -146.26554687 233.1034375 -146.40234375 233.671875 C-147.05660641 236.22050602 -147.80035064 238.73159343 -148.5625 241.25 C-148.83191406 242.14203125 -149.10132813 243.0340625 -149.37890625 243.953125 C-149.58386719 244.62859375 -149.78882813 245.3040625 -150 246 C-150.66 246 -151.32 246 -152 246 C-152.12375 247.216875 -152.2475 248.43375 -152.375 249.6875 C-152.79415578 253.08864974 -153.63544413 255.84446454 -155 259 C-155.36871088 260.65919896 -155.71281674 262.3247643 -156 264 C-156.66 264 -157.32 264 -158 264 C-158.33 267.96 -158.66 271.92 -159 276 C-159.66 276 -160.32 276 -161 276 C-161 296.79 -161 317.58 -161 339 C-160.34 339 -159.68 339 -159 339 C-158.87882812 339.88042969 -158.75765625 340.76085937 -158.6328125 341.66796875 C-158.46523437 342.82941406 -158.29765625 343.99085938 -158.125 345.1875 C-157.96257812 346.33605469 -157.80015625 347.48460937 -157.6328125 348.66796875 C-157.12031517 351.94704729 -157.12031517 351.94704729 -155.9296875 354.67578125 C-155 357 -155 357 -155 361 C-154.34 361 -153.68 361 -153 361 C-152.34 364.63 -151.68 368.26 -151 372 C-150.34 372 -149.68 372 -149 372 C-145.60633122 377.37330889 -145.67287658 381.86946489 -146 388 C-149.20803516 389.60401758 -152.52990201 389.62406901 -156 389 C-158.5 386.6875 -158.5 386.6875 -160 384 C-160 383.01 -160 382.02 -160 381 C-160.66 381 -161.32 381 -162 381 C-162.33 378.69 -162.66 376.38 -163 374 C-163.66 374 -164.32 374 -165 374 C-165.33 371.36 -165.66 368.72 -166 366 C-166.66 366 -167.32 366 -168 366 C-168.12117188 365.41992188 -168.24234375 364.83984375 -168.3671875 364.2421875 C-169.13217027 360.67619091 -169.90922638 357.25719193 -171.125 353.8125 C-172.0811033 350.73931081 -172.1523511 348.19937309 -172 345 C-172.66 345 -173.32 345 -174 345 C-174.93854006 337.96094956 -175.10808032 331.09727428 -175 324 C-175.66 324 -176.32 324 -177 324 C-177 313.77 -177 303.54 -177 293 C-176.34 293 -175.68 293 -175 293 C-175.01160156 292.0821875 -175.02320313 291.164375 -175.03515625 290.21875 C-175.08301493 283.70996973 -175.02900697 277.43129355 -174 271 C-173.34 271 -172.68 271 -172 271 C-172.020625 269.9275 -172.04125 268.855 -172.0625 267.75 C-172.0142016 264.85209576 -171.86844115 262.71387859 -171 260 C-170.34 260 -169.68 260 -169 260 C-168.96261719 259.443125 -168.92523438 258.88625 -168.88671875 258.3125 C-168.40439364 252.71374576 -167.16758121 248.18334636 -165 243 C-164.34 243 -163.68 243 -163 243 C-162.9071875 241.329375 -162.9071875 241.329375 -162.8125 239.625 C-162.25396463 234.94830832 -160.37486508 231.30752632 -158.15625 227.19921875 C-156.88568747 224.92635674 -156.88568747 224.92635674 -156 222 C-155.34 222 -154.68 222 -154 222 C-153.87625 221.030625 -153.7525 220.06125 -153.625 219.0625 C-153.41875 218.051875 -153.2125 217.04125 -153 216 C-152.34 215.67 -151.68 215.34 -151 215 C-150.67 214.01 -150.34 213.02 -150 212 C-149.34 212 -148.68 212 -148 212 C-147.896875 211.484375 -147.79375 210.96875 -147.6875 210.4375 C-146.75521003 207.13210828 -145.46401496 204.10371171 -144 201 C-143.34 200.67 -142.68 200.34 -142 200 C-141.67 199.01 -141.34 198.02 -141 197 C-140.34 197 -139.68 197 -139 197 C-138.67 196.01 -138.34 195.02 -138 194 C-137.34 194 -136.68 194 -136 194 C-135.8453125 193.1646875 -135.8453125 193.1646875 -135.6875 192.3125 C-134.85821592 189.5230899 -133.65700944 187.3860936 -132 185 C-131.34 185 -130.68 185 -130 185 C-129.7525 184.27425781 -129.505 183.54851562 -129.25 182.80078125 C-127.87572546 179.72154736 -126.25344071 177.68533961 -124 175.1875 C-123.29875 174.39730469 -122.5975 173.60710937 -121.875 172.79296875 C-120 171 -120 171 -118 171 C-118 170.01 -118 169.02 -118 168 C-116.125 165.8125 -116.125 165.8125 -114 164 C-113.34 164 -112.68 164 -112 164 C-111.67 163.01 -111.34 162.02 -111 161 C-110.34 161 -109.68 161 -109 161 C-108.773125 160.28070313 -108.54625 159.56140625 -108.3125 158.8203125 C-106.72423117 155.40742531 -104.72210891 153.46258609 -102 150.875 C-99.30717958 148.29959908 -97.07024243 146.10536365 -95 143 C-94.34 143 -93.68 143 -93 143 C-93 142.01 -93 141.02 -93 140 C-92.34 140 -91.68 140 -91 140 C-90.67 139.01 -90.34 138.02 -90 137 C-89.34 137 -88.68 137 -88 137 C-87.67 136.01 -87.34 135.02 -87 134 C-86.34 134 -85.68 134 -85 134 C-84.67 133.01 -84.34 132.02 -84 131 C-83.34 131 -82.68 131 -82 131 C-81.690625 130.38125 -81.38125 129.7625 -81.0625 129.125 C-80.375 127.75 -79.6875 126.375 -79 125 C-78.01 125 -77.02 125 -76 125 C-75.938125 124.443125 -75.87625 123.88625 -75.8125 123.3125 C-74.67221022 120.06705986 -72.43703832 118.37611236 -70 116 C-69.505 114.515 -69.505 114.515 -69 113 C-68.34 113 -67.68 113 -67 113 C-66.505 111.515 -66.505 111.515 -66 110 C-65.34 110 -64.68 110 -64 110 C-63.7215625 109.01 -63.7215625 109.01 -63.4375 108 C-61.67801112 104.32802321 -59.30016355 101.75048968 -56.55859375 98.76953125 C-54.92943284 97.07185494 -54.92943284 97.07185494 -54 95 C-53.34 95 -52.68 95 -52 95 C-51.71125 94.236875 -51.4225 93.47375 -51.125 92.6875 C-50 90 -50 90 -48 87 C-47.34 87 -46.68 87 -46 87 C-45.67 85.68 -45.34 84.36 -45 83 C-44.34 83 -43.68 83 -43 83 C-42.938125 82.319375 -42.87625 81.63875 -42.8125 80.9375 C-41.86545516 77.51356867 -40.31462589 75.42169955 -38.15625 72.6484375 C-36.803469 70.88688064 -36.803469 70.88688064 -36 68 C-35.34 68 -34.68 68 -34 68 C-33.67 66.02 -33.34 64.04 -33 62 C-32.34 62 -31.68 62 -31 62 C-30.67 60.02 -30.34 58.04 -30 56 C-29.34 56 -28.68 56 -28 56 C-27.8453125 54.515 -27.8453125 54.515 -27.6875 53 C-27.09191294 48.71702837 -25.61404973 45.00003629 -24 41 C-23.34 41 -22.68 41 -22 41 C-21.67 38.03 -21.34 35.06 -21 32 C-20.34 32 -19.68 32 -19 32 C-18.98582031 31.17757812 -18.97164062 30.35515625 -18.95703125 29.5078125 C-18.56437954 20.31763993 -16.75383856 13.50460627 -10.8125 6.375 C-9 5 -9 5 -7 5 C-7 4.34 -7 3.68 -7 3 C-3.535 2.505 -3.535 2.505 0 2 C0 1.34 0 0.68 0 0 Z " fill="#0C0D0E" transform="translate(260,187)"/>
<path d="M0 0 C4.1477453 5.11555254 4.18167184 10.52230227 4.1875 16.875 C4.19974609 17.56980469 4.21199219 18.26460937 4.22460938 18.98046875 C4.23710204 23.40287128 3.57221371 26.88535892 2 31 C1.64882649 32.37055218 1.31283118 33.74519104 1 35.125 C0.30397502 37.96891457 -0.404707 40.50735469 -2 43 C-2.99 43.495 -2.99 43.495 -4 44 C-4.92866164 45.48867276 -5.79705336 47.01554706 -6.625 48.5625 C-7.07101562 49.38878906 -7.51703125 50.21507812 -7.9765625 51.06640625 C-8.31429687 51.70449219 -8.65203125 52.34257813 -9 53 C-9.66 53 -10.32 53 -11 53 C-11 53.66 -11 54.32 -11 55 C-13.64738916 56.4606285 -14.89448334 57 -18 57 C-18 57.66 -18 58.32 -18 59 C-18.71027344 59.13277344 -19.42054688 59.26554688 -20.15234375 59.40234375 C-21.07144531 59.57894531 -21.99054688 59.75554688 -22.9375 59.9375 C-23.85402344 60.11152344 -24.77054688 60.28554688 -25.71484375 60.46484375 C-27.95289844 60.77714988 -27.95289844 60.77714988 -29 62 C-34.71658302 62.33111384 -40.39018566 62.21293283 -46 61 C-46 60.34 -46 59.68 -46 59 C-48.64 58.67 -51.28 58.34 -54 58 C-54 57.34 -54 56.68 -54 56 C-55.98 55.505 -55.98 55.505 -58 55 C-58 54.34 -58 53.68 -58 53 C-59.485 52.505 -59.485 52.505 -61 52 C-61 51.34 -61 50.68 -61 50 C-62.485 49.505 -62.485 49.505 -64 49 C-64 48.34 -64 47.68 -64 47 C-65.485 46.505 -65.485 46.505 -67 46 C-67 45.34 -67 44.68 -67 44 C-68.485 44.495 -68.485 44.495 -70 45 C-71.21869929 47.50447516 -71.21869929 47.50447516 -72 50 C-72.66 50 -73.32 50 -74 50 C-74.14501953 50.87591797 -74.14501953 50.87591797 -74.29296875 51.76953125 C-75.14676621 54.46300279 -76.31053443 55.71125562 -78.3125 57.6875 C-78.90675781 58.28949219 -79.50101562 58.89148438 -80.11328125 59.51171875 C-82.10874682 61.08578165 -83.51706615 61.58891824 -86 62 C-86 62.66 -86 63.32 -86 64 C-96.64154095 68.75789456 -109.64267593 70.16241633 -121 67 C-121 66.34 -121 65.68 -121 65 C-121.886875 64.9175 -122.77375 64.835 -123.6875 64.75 C-127.46391434 63.89496279 -129.11077308 62.50906548 -132 60 C-133.31138904 59.29114106 -134.63777017 58.60543548 -136 58 C-136 57.34 -136 56.68 -136 56 C-136.99 55.67 -137.98 55.34 -139 55 C-141.07530387 52.07920195 -142 50.62453269 -142 47 C-142.66 47 -143.32 47 -144 47 C-144.33 44.03 -144.66 41.06 -145 38 C-145.66 38 -146.32 38 -147 38 C-147 34.37 -147 30.74 -147 27 C-146.34 27 -145.68 27 -145 27 C-144.67 26.01 -144.34 25.02 -144 24 C-142.56510191 23.86463226 -141.12652893 23.76782857 -139.6875 23.6875 C-138.88699219 23.62949219 -138.08648437 23.57148437 -137.26171875 23.51171875 C-135 24 -135 24 -133.25 26.125 C-131.86004974 29.32188561 -131.50324796 31.84088713 -131.3125 35.3125 C-131.24675781 36.38113281 -131.18101562 37.44976563 -131.11328125 38.55078125 C-131.07589844 39.35902344 -131.03851563 40.16726563 -131 41 C-130.34 41 -129.68 41 -129 41 C-126 45.38461538 -126 45.38461538 -126 48 C-125.38125 48.103125 -124.7625 48.20625 -124.125 48.3125 C-122 49 -122 49 -120 52 C-111.62420914 54.49958156 -102.05876158 53.89523702 -94.16015625 50.2734375 C-89.60764419 47.58967813 -85.93169426 44.02240508 -84 39 C-83.34 39 -82.68 39 -82 39 C-81.67 36.36 -81.34 33.72 -81 31 C-80.34 31 -79.68 31 -79 31 C-78.814375 29.6078125 -78.814375 29.6078125 -78.625 28.1875 C-78 25 -78 25 -76 22 C-73.3984375 21.70703125 -73.3984375 21.70703125 -70.375 21.8125 C-68.87066406 21.85310547 -68.87066406 21.85310547 -67.3359375 21.89453125 C-66.56507813 21.92933594 -65.79421875 21.96414063 -65 22 C-65 22.66 -65 23.32 -65 24 C-64.34 24 -63.68 24 -63 24 C-62.505 25.98 -62.505 25.98 -62 28 C-61.34 28 -60.68 28 -60 28 C-59.505 30.97 -59.505 30.97 -59 34 C-58.34 34 -57.68 34 -57 34 C-56.505 36.475 -56.505 36.475 -56 39 C-54.515 39.495 -54.515 39.495 -53 40 C-53 40.66 -53 41.32 -53 42 C-49.07561214 43.66489182 -45.10899581 44.87204037 -41 46 C-41 46.66 -41 47.32 -41 48 C-34.25465081 47.74783741 -28.82783801 46.91432637 -22.77734375 43.83984375 C-21 43 -21 43 -19 43 C-18.67 41.68 -18.34 40.36 -18 39 C-17.34 39 -16.68 39 -16 39 C-15.67 37.02 -15.34 35.04 -15 33 C-14.34 33 -13.68 33 -13 33 C-12.98018066 32.10692139 -12.96036133 31.21384277 -12.93994141 30.29370117 C-12.86181302 26.97799292 -12.77512029 23.66273838 -12.68261719 20.34741211 C-12.64435134 18.91292932 -12.60949419 17.47835135 -12.578125 16.04370117 C-12.53242138 13.98061122 -12.47443807 11.91817505 -12.4140625 9.85546875 C-12.3826416 8.61434326 -12.3512207 7.37321777 -12.31884766 6.09448242 C-12 3 -12 3 -10 0 C-6.17853346 -1.27382218 -3.89335307 -0.97333827 0 0 Z " fill="#0A0A0C" transform="translate(548,519)"/>
<path d="M0 0 C0.85722656 -0.00257813 1.71445312 -0.00515625 2.59765625 -0.0078125 C4.9375 0.125 4.9375 0.125 7.9375 1.125 C7.9375 1.785 7.9375 2.445 7.9375 3.125 C8.494375 3.186875 9.05125 3.24875 9.625 3.3125 C14.54478023 5.04107143 17.7176024 9.56836808 19.9375 14.125 C19.9375 15.445 19.9375 16.765 19.9375 18.125 C20.5975 18.125 21.2575 18.125 21.9375 18.125 C22.91779565 23.03425837 23.08859725 27.70727573 23.0625 32.6875 C23.06830078 33.8002832 23.06830078 33.8002832 23.07421875 34.93554688 C23.06735418 38.79000306 22.87206804 42.37931062 21.9375 46.125 C21.2775 46.125 20.6175 46.125 19.9375 46.125 C19.6075 48.435 19.2775 50.745 18.9375 53.125 C18.2775 53.125 17.6175 53.125 16.9375 53.125 C16.73125 53.846875 16.525 54.56875 16.3125 55.3125 C14.46221012 59.09718384 12.33509562 60.64758653 8.9375 63.125 C8.2775 63.125 7.6175 63.125 6.9375 63.125 C6.9375 63.785 6.9375 64.445 6.9375 65.125 C4.33326408 65.15197137 1.72930756 65.17182489 -0.875 65.1875 C-1.61298828 65.19587891 -2.35097656 65.20425781 -3.11132812 65.21289062 C-6.36172068 65.22759828 -8.95654895 65.16031702 -12.0625 64.125 C-12.0625 63.465 -12.0625 62.805 -12.0625 62.125 C-12.990625 61.939375 -12.990625 61.939375 -13.9375 61.75 C-16.0625 61.125 -16.0625 61.125 -18.0625 59.125 C-18.0625 58.135 -18.0625 57.145 -18.0625 56.125 C-18.7225 56.125 -19.3825 56.125 -20.0625 56.125 C-20.3925 54.145 -20.7225 52.165 -21.0625 50.125 C-21.7225 50.125 -22.3825 50.125 -23.0625 50.125 C-23.19527344 49.41472656 -23.32804687 48.70445312 -23.46484375 47.97265625 C-23.72974609 46.59400391 -23.72974609 46.59400391 -24 45.1875 C-24.17402344 44.27097656 -24.34804688 43.35445312 -24.52734375 42.41015625 C-24.83964988 40.17210156 -24.83964988 40.17210156 -26.0625 39.125 C-26.13508946 36.93860547 -26.14623783 34.74999611 -26.125 32.5625 C-26.11597656 31.36496094 -26.10695313 30.16742187 -26.09765625 28.93359375 C-26.08605469 28.00675781 -26.07445312 27.07992187 -26.0625 26.125 C-25.4025 26.125 -24.7425 26.125 -24.0625 26.125 C-23.7325 22.825 -23.4025 19.525 -23.0625 16.125 C-22.4025 16.125 -21.7425 16.125 -21.0625 16.125 C-21.0625 15.279375 -21.0625 14.43375 -21.0625 13.5625 C-19.62352825 8.6160346 -16.31398538 5.92072385 -12.0625 3.125 C-11.0725 3.125 -10.0825 3.125 -9.0625 3.125 C-9.0625 2.465 -9.0625 1.805 -9.0625 1.125 C-5.97816208 0.2233142 -3.20908179 -0.00968049 0 0 Z " fill="#040505" transform="translate(328.0625,488.875)"/>
<path d="M0 0 C2.64 0 5.28 0 8 0 C8 0.66 8 1.32 8 2 C9.7634375 1.9690625 9.7634375 1.9690625 11.5625 1.9375 C14.57296246 2.29512586 15.76425731 2.7749307 17.984375 4.89453125 C20.97739985 8.75092865 23.50967906 12.80577526 26 17 C26.66 17.33 27.32 17.66 28 18 C28.4140625 20.28515625 28.4140625 20.28515625 28.625 23.0625 C28.69976563 23.98160156 28.77453125 24.90070313 28.8515625 25.84765625 C28.90054688 26.55792969 28.94953125 27.26820313 29 28 C29.66 28 30.32 28 31 28 C31 32.95 31 37.9 31 43 C30.34 43 29.68 43 29 43 C28.67 45.97 28.34 48.94 28 52 C27.34 52 26.68 52 26 52 C25.89171875 52.58394531 25.7834375 53.16789062 25.671875 53.76953125 C24.51817085 57.59956072 21.92568722 60.34028434 19 63 C16.125 63.9375 16.125 63.9375 14 64 C14 64.66 14 65.32 14 66 C11.89611431 66.05402274 9.79183286 66.09280256 7.6875 66.125 C6.51574219 66.14820313 5.34398437 66.17140625 4.13671875 66.1953125 C1 66 1 66 -2 64 C-2 63.34 -2 62.68 -2 62 C-2.59296875 61.89429688 -3.1859375 61.78859375 -3.796875 61.6796875 C-6.30493596 60.90592401 -7.42117734 59.98153209 -9.25 58.125 C-9.77078125 57.61195313 -10.2915625 57.09890625 -10.828125 56.5703125 C-12 55 -12 55 -12 52 C-12.66 52 -13.32 52 -14 52 C-14.33 50.02 -14.66 48.04 -15 46 C-15.66 46 -16.32 46 -17 46 C-17.89699917 42.9246379 -18.12866019 40.17141481 -18.1328125 36.97265625 C-18.13410156 36.01552734 -18.13539063 35.05839844 -18.13671875 34.07226562 C-18.13285156 33.07904297 -18.12898437 32.08582031 -18.125 31.0625 C-18.12886719 30.07314453 -18.13273438 29.08378906 -18.13671875 28.06445312 C-18.13542969 27.10603516 -18.13414062 26.14761719 -18.1328125 25.16015625 C-18.13168457 24.29011963 -18.13055664 23.42008301 -18.12939453 22.52368164 C-17.9964076 19.92993466 -17.57137724 17.53034439 -17 15 C-16.34 15 -15.68 15 -15 15 C-14.95875 14.319375 -14.9175 13.63875 -14.875 12.9375 C-13.61539571 8.70882847 -11.46652009 5.74217261 -8 3 C-5.18602385 2.13610427 -2.98432648 2.0514539 0 2 C0 1.34 0 0.68 0 0 Z " fill="#050506" transform="translate(601,454)"/>
<path d="M0 0 C0.97775391 -0.020625 1.95550781 -0.04125 2.96289062 -0.0625 C9.184675 -0.09583843 13.75878873 0.68411381 19.4375 3.25 C19.4375 3.91 19.4375 4.57 19.4375 5.25 C20.00984375 5.33507812 20.5821875 5.42015625 21.171875 5.5078125 C24.09310717 6.46476786 25.53430721 7.94788284 27.6875 10.125 C28.39390625 10.82367188 29.1003125 11.52234375 29.828125 12.2421875 C31.4375 14.25 31.4375 14.25 31.4375 17.25 C32.0975 17.25 32.7575 17.25 33.4375 17.25 C35.16732123 24.85572193 34.79607757 32.60800118 33.4375 40.25 C32.7775 40.25 32.1175 40.25 31.4375 40.25 C31.1075 42.56 30.7775 44.87 30.4375 47.25 C29.7775 47.25 29.1175 47.25 28.4375 47.25 C28.169375 48.013125 27.90125 48.77625 27.625 49.5625 C26.45638538 52.2072594 25.42815202 53.25934798 23.4375 55.25 C23.14875 56.11625 22.86 56.9825 22.5625 57.875 C22.19125 58.65875 21.82 59.4425 21.4375 60.25 C18.8125 61.0625 18.8125 61.0625 16.4375 61.25 C16.1075 62.24 15.7775 63.23 15.4375 64.25 C12.05882353 66.71552067 10.73191798 67.25 6.4375 67.25 C6.4375 67.91 6.4375 68.57 6.4375 69.25 C2.4561217 70.5771261 -1.41295227 70.31915913 -5.5625 70.25 C-5.5625 70.91 -5.5625 71.57 -5.5625 72.25 C-8.8625 72.25 -12.1625 72.25 -15.5625 72.25 C-15.5625 71.59 -15.5625 70.93 -15.5625 70.25 C-18.5325 69.92 -21.5025 69.59 -24.5625 69.25 C-24.5625 68.59 -24.5625 67.93 -24.5625 67.25 C-25.305 67.146875 -26.0475 67.04375 -26.8125 66.9375 C-29.7598519 66.20066203 -31.34633074 65.30200858 -33.5625 63.25 C-33.5625 62.59 -33.5625 61.93 -33.5625 61.25 C-34.2225 61.25 -34.8825 61.25 -35.5625 61.25 C-35.8925 59.27 -36.2225 57.29 -36.5625 55.25 C-37.2225 55.25 -37.8825 55.25 -38.5625 55.25 C-39.6875 48.625 -39.6875 48.625 -38.5625 45.25 C-35.37622086 43.65686043 -32.03024485 43.8654862 -28.5625 44.25 C-25.78445068 45.91682959 -25.56600124 47.2383292 -24.625 50.375 C-24.274375 51.32375 -23.92375 52.2725 -23.5625 53.25 C-21.64583333 54.08333333 -21.64583333 54.08333333 -19.5625 54.25 C-18.5725 54.91 -17.5825 55.57 -16.5625 56.25 C-10.24599071 56.93395323 -4.52972422 56.32026146 1.4375 54.25 C2.22125 54.105625 3.005 53.96125 3.8125 53.8125 C4.616875 53.5340625 4.616875 53.5340625 5.4375 53.25 C5.7675 52.26 6.0975 51.27 6.4375 50.25 C7.0975 50.25 7.7575 50.25 8.4375 50.25 C8.7675 49.26 9.0975 48.27 9.4375 47.25 C10.0975 47.25 10.7575 47.25 11.4375 47.25 C11.7675 46.26 12.0975 45.27 12.4375 44.25 C13.0975 44.25 13.7575 44.25 14.4375 44.25 C14.623125 42.9196875 14.623125 42.9196875 14.8125 41.5625 C15.4375 38.25 15.4375 38.25 16.45703125 35.89453125 C17.53679737 32.98217404 17.73720272 30.7219418 17.75 27.625 C17.76675781 26.68398437 17.78351563 25.74296875 17.80078125 24.7734375 C17.63994846 22.21890389 17.63994846 22.21890389 16.0859375 20.45703125 C13.9494882 18.89266435 12.03401051 18.6008798 9.4375 18.25 C9.4375 17.59 9.4375 16.93 9.4375 16.25 C6.25017746 16.16202719 3.06317212 16.10928659 -0.125 16.0625 C-1.02025391 16.03736328 -1.91550781 16.01222656 -2.83789062 15.98632812 C-8.61974272 15.92279129 -12.38413742 16.71080291 -17.5625 19.25 C-18.5525 19.25 -19.5425 19.25 -20.5625 19.25 C-20.5625 19.91 -20.5625 20.57 -20.5625 21.25 C-23.5325 21.25 -26.5025 21.25 -29.5625 21.25 C-31.15261223 18.06977555 -30.96147547 14.71253711 -30.5625 11.25 C-29.3125 9.4375 -29.3125 9.4375 -27.5625 8.25 C-26.5725 7.4146875 -26.5725 7.4146875 -25.5625 6.5625 C-23.5625 5.25 -23.5625 5.25 -20.5625 5.25 C-20.5625 4.59 -20.5625 3.93 -20.5625 3.25 C-19.60537109 3.05083984 -19.60537109 3.05083984 -18.62890625 2.84765625 C-17.80261719 2.67105469 -16.97632813 2.49445313 -16.125 2.3125 C-14.88943359 2.05146484 -14.88943359 2.05146484 -13.62890625 1.78515625 C-8.93316487 0.56905688 -5.26494486 0.02701704 0 0 Z " fill="#0B0B0D" transform="translate(202.5625,90.75)"/>
<path d="M0 0 C0.33 0.99 0.66 1.98 1 3 C0.34 3 -0.32 3 -1 3 C-1.103125 3.556875 -1.20625 4.11375 -1.3125 4.6875 C-2.13133577 7.44176578 -3.45853781 9.58727657 -5 12 C-5.33 11.34 -5.66 10.68 -6 10 C-6.66 10 -7.32 10 -8 10 C-7.67 8.35 -7.34 6.7 -7 5 C-6.01 5 -5.02 5 -4 5 C-4 4.34 -4 3.68 -4 3 C-3.34 3 -2.68 3 -2 3 C-1.67 2.34 -1.34 1.68 -1 1 C-0.67 0.67 -0.34 0.34 0 0 Z " fill="#1D1D1F" transform="translate(232,266)"/>
<path d="M0 0 C0.99 0.66 1.98 1.32 3 2 C2.67 2.66 2.34 3.32 2 4 C2.99 4.33 3.98 4.66 5 5 C2.69 6.32 0.38 7.64 -2 9 C-2.66 8.34 -3.32 7.68 -4 7 C-3.8125 4.5 -3.8125 4.5 -3 2 C-2.01 1.34 -1.02 0.68 0 0 Z " fill="#1D1E20" transform="translate(214,149)"/>
<path d="M0 0 C0.33 0.99 0.66 1.98 1 3 C0.34 3 -0.32 3 -1 3 C-1.2475 3.763125 -1.495 4.52625 -1.75 5.3125 C-3.10995558 8.2364045 -4.31585826 9.30004356 -7 11 C-7.33 10.01 -7.66 9.02 -8 8 C-6.625 6 -6.625 6 -5 4 C-4.67 3.01 -4.34 2.02 -4 1 C-2.68 1.33 -1.36 1.66 0 2 C0 1.34 0 0.68 0 0 Z " fill="#28282A" transform="translate(685,590)"/>
<path d="M0 0 C-0.33 1.65 -0.66 3.3 -1 5 C-3.64 5.33 -6.28 5.66 -9 6 C-8.39816251 3.97954558 -7.72693904 1.97888961 -7 0 C-4.3333581 -1.33332095 -2.83319697 -0.67102033 0 0 Z " fill="#070709" transform="translate(222,277)"/>
<path d="M0 0 C1 3 1 3 1 5 C1.66 5.33 2.32 5.66 3 6 C2.34 6.66 1.68 7.32 1 8 C-2.125 7.625 -2.125 7.625 -5 7 C-2.25 1.125 -2.25 1.125 0 0 Z " fill="#131315" transform="translate(466,557)"/>
<path d="M0 0 C-0.33 0.99 -0.66 1.98 -1 3 C-1.66 3 -2.32 3 -3 3 C-3 3.66 -3 4.32 -3 5 C-4.375 6.625 -4.375 6.625 -6 8 C-6.66 8 -7.32 8 -8 8 C-8 8.66 -8 9.32 -8 10 C-8.66 9.67 -9.32 9.34 -10 9 C-8.13405729 4.41995879 -5.20913241 0 0 0 Z " fill="#2A2A2C" transform="translate(654,626)"/>
<path d="M0 0 C0.93065133 2.60582371 1.14917407 3.64198224 0.0625 6.25 C-0.4634375 7.11625 -0.4634375 7.11625 -1 8 C-1.99 8 -2.98 8 -4 8 C-4.28875 8.639375 -4.5775 9.27875 -4.875 9.9375 C-6 12 -6 12 -8 13 C-6.66666667 10.33333333 -5.33333333 7.66666667 -4 5 C-3.34 5 -2.68 5 -2 5 C-1.34 3.35 -0.68 1.7 0 0 Z " fill="#2A2A2C" transform="translate(132,367)"/>
<path d="M0 0 C0.99 0.33 1.98 0.66 3 1 C2.34 2.65 1.68 4.3 1 6 C0.34 5.67 -0.32 5.34 -1 5 C-1.33 7.97 -1.66 10.94 -2 14 C-2.33 14 -2.66 14 -3 14 C-3 10.37 -3 6.74 -3 3 C-2.34 3 -1.68 3 -1 3 C-0.67 2.01 -0.34 1.02 0 0 Z " fill="#3B3C3E" transform="translate(404,543)"/>
<path d="M0 0 C3.34998521 1.11666174 3.79340222 1.74694925 5.6875 4.5625 C6.12449219 5.20316406 6.56148437 5.84382813 7.01171875 6.50390625 C7.33785156 6.99761719 7.66398438 7.49132812 8 8 C7.01 8.66 6.02 9.32 5 10 C1.125 3.375 1.125 3.375 0 0 Z M2 7 C2.33 7.66 2.66 8.32 3 9 C2.34 8.67 1.68 8.34 1 8 C1.33 7.67 1.66 7.34 2 7 Z " fill="#2B2B2D" transform="translate(645,343)"/>
<path d="M0 0 C0.5534764 2.07553648 1 3.84365964 1 6 C0.34 6 -0.32 6 -1 6 C-1 6.66 -1 7.32 -1 8 C-2.98 8 -4.96 8 -7 8 C-6.67 7.34 -6.34 6.68 -6 6 C-5.34 6 -4.68 6 -4 6 C-3.67 5.01 -3.34 4.02 -3 3 C-2.34 3 -1.68 3 -1 3 C-0.67 2.01 -0.34 1.02 0 0 Z " fill="#252527" transform="translate(215,135)"/>
<path d="M0 0 C0.66 0.33 1.32 0.66 2 1 C2 1.99 2 2.98 2 4 C1.34 4 0.68 4 0 4 C-0.33 6.31 -0.66 8.62 -1 11 C-2.75547734 8.3151523 -3.00627277 7.07997785 -2.75 3.8125 C-2.5025 2.884375 -2.255 1.95625 -2 1 C-1.34 0.67 -0.68 0.34 0 0 Z " fill="#393A3B" transform="translate(166,135)"/>
<path d="M0 0 C2.31 1.98 4.62 3.96 7 6 C6.67 6.66 6.34 7.32 6 8 C3.11562221 6.70700306 1.12780579 5.34058637 -1 3 C-0.67 2.01 -0.34 1.02 0 0 Z " fill="#171719" transform="translate(227,99)"/>
<path d="M0 0 C0.66 0 1.32 0 2 0 C2 0.66 2 1.32 2 2 C2.99 2 3.98 2 5 2 C5.33 3.32 5.66 4.64 6 6 C3.69 5.67 1.38 5.34 -1 5 C-0.67 3.35 -0.34 1.7 0 0 Z " fill="#17181A" transform="translate(317,548)"/>
<path d="M0 0 C0.061875 0.61875 0.12375 1.2375 0.1875 1.875 C0.828919 4.27761141 0.828919 4.27761141 3.5625 5.25 C4.366875 5.4975 5.17125 5.745 6 6 C5.34 8.31 4.68 10.62 4 13 C2.23537317 9.91190305 2 8.76687864 2 5 C1.34 5 0.68 5 0 5 C0 3.35 0 1.7 0 0 Z " fill="#38383A" transform="translate(92,548)"/>
<path d="M0 0 C2.97 0.33 5.94 0.66 9 1 C9 1.66 9 2.32 9 3 C7 4.625 7 4.625 5 6 C4.731875 5.360625 4.46375 4.72125 4.1875 4.0625 C3.11332248 1.66868314 3.11332248 1.66868314 0 1 C0 0.67 0 0.34 0 0 Z " fill="#2B2B2B" transform="translate(649,366)"/>
<path d="M0 0 C1.32 0.66 2.64 1.32 4 2 C2.35830472 4.02054804 0.69088222 6.02043058 -1 8 C-1.33 8 -1.66 8 -2 8 C-2 6.35 -2 4.7 -2 3 C-1.34 3 -0.68 3 0 3 C0 2.01 0 1.02 0 0 Z " fill="#141517" transform="translate(201,304)"/>
<path d="M0 0 C1.4606285 2.64738916 2 3.89448334 2 7 C2.66 7 3.32 7 4 7 C4 8.65 4 10.3 4 12 C3.67 10.68 3.34 9.36 3 8 C2.360625 7.896875 1.72125 7.79375 1.0625 7.6875 C0.381875 7.460625 -0.29875 7.23375 -1 7 C-1.33 6.01 -1.66 5.02 -2 4 C-1.34 4 -0.68 4 0 4 C0 2.68 0 1.36 0 0 Z " fill="#3F3F41" transform="translate(706,426)"/>
<path d="M0 0 C2.64 0 5.28 0 8 0 C8 0.66 8 1.32 8 2 C8.66 2 9.32 2 10 2 C9.67 2.99 9.34 3.98 9 5 C8.1646875 4.566875 8.1646875 4.566875 7.3125 4.125 C4.91505355 2.9586747 2.48403061 1.9660119 0 1 C0 0.67 0 0.34 0 0 Z " fill="#222325" transform="translate(171,657)"/>
<path d="M0 0 C0.5534764 2.07553648 1 3.84365964 1 6 C0.34 6 -0.32 6 -1 6 C-1 6.66 -1 7.32 -1 8 C-1.99 7.67 -2.98 7.34 -4 7 C-3.67 5.68 -3.34 4.36 -3 3 C-2.34 3 -1.68 3 -1 3 C-0.67 2.01 -0.34 1.02 0 0 Z " fill="#1C1C1E" transform="translate(647,615)"/>
<path d="M0 0 C0.66 0.33 1.32 0.66 2 1 C1.67 1.99 1.34 2.98 1 4 C-0.32303717 4.3721042 -1.65737935 4.70630173 -3 5 C-3.33 5.66 -3.66 6.32 -4 7 C-5.125 3.25 -5.125 3.25 -4 1 C-2.02 1.495 -2.02 1.495 0 2 C0 1.34 0 0.68 0 0 Z " fill="#373839" transform="translate(670,609)"/>
<path d="M0 0 C0.99 0 1.98 0 3 0 C4.75 2.375 4.75 2.375 6 5 C5.67 5.66 5.34 6.32 5 7 C4.34 7 3.68 7 3 7 C3 6.34 3 5.68 3 5 C2.34 5 1.68 5 1 5 C0.67 3.35 0.34 1.7 0 0 Z " fill="#353537" transform="translate(416,560)"/>
<path d="M0 0 C0.33 0.66 0.66 1.32 1 2 C-3.75 6.875 -3.75 6.875 -6 8 C-5.8125 5.6875 -5.8125 5.6875 -5 3 C-2.4375 1.1875 -2.4375 1.1875 0 0 Z " fill="#1D1D1F" transform="translate(697,548)"/>
<path d="M0 0 C1.32 0.33 2.64 0.66 4 1 C4.93423645 4.01031744 5.04449911 4.86650268 4 8 C3.34 7.34 2.68 6.68 2 6 C2 5.01 2 4.02 2 3 C1.34 3 0.68 3 0 3 C0 2.01 0 1.02 0 0 Z " fill="#1E1E20" transform="translate(587,503)"/>
<path d="M0 0 C0.66 0.66 1.32 1.32 2 2 C1.01 4.31 0.02 6.62 -1 9 C-1.66 8.34 -2.32 7.68 -3 7 C-2.67028521 3.70285207 -2.3773161 2.3773161 0 0 Z " fill="#050507" transform="translate(182,324)"/>
<path d="M0 0 C0 0.99 0 1.98 0 3 C-3.3 2.67 -6.6 2.34 -10 2 C-10 1.67 -10 1.34 -10 1 C-3.71428571 -1.42857143 -3.71428571 -1.42857143 0 0 Z " fill="#2D2D2D" transform="translate(275,695)"/>
<path d="M0 0 C0.99 0.33 1.98 0.66 3 1 C3 1.66 3 2.32 3 3 C3.66 3 4.32 3 5 3 C4.34 4.32 3.68 5.64 3 7 C2.67 6.01 2.34 5.02 2 4 C1.01 3.67 0.02 3.34 -1 3 C-0.67 2.01 -0.34 1.02 0 0 Z " fill="#202021" transform="translate(485,565)"/>
<path d="M0 0 C0.99 0 1.98 0 3 0 C3 0.66 3 1.32 3 2 C4.32 2.66 5.64 3.32 7 4 C6.236875 3.979375 5.47375 3.95875 4.6875 3.9375 C1.89814214 3.87057159 1.89814214 3.87057159 -1 5 C-0.67 3.35 -0.34 1.7 0 0 Z " fill="#2E2F31" transform="translate(612,319)"/>
<path d="M0 0 C0.66 0 1.32 0 2 0 C1.6875 2.375 1.6875 2.375 1 5 C0.01 5.66 -0.98 6.32 -2 7 C-2.125 4.625 -2.125 4.625 -2 2 C-1.34 1.34 -0.68 0.68 0 0 Z " fill="#131315" transform="translate(664,613)"/>
<path d="M0 0 C0.99 0 1.98 0 3 0 C3 1.65 3 3.3 3 5 C2.01 5 1.02 5 0 5 C-0.5625 3.0625 -0.5625 3.0625 -1 1 C-0.67 0.67 -0.34 0.34 0 0 Z " fill="#101012" transform="translate(407,565)"/>
<path d="M0 0 C2.475 0.99 2.475 0.99 5 2 C3.35 3.32 1.7 4.64 0 6 C-1 3 -1 3 0 0 Z " fill="#292929" transform="translate(495,561)"/>
<path d="M0 0 C1.98 0 3.96 0 6 0 C6 0.99 6 1.98 6 3 C4.35 2.67 2.7 2.34 1 2 C0.67 2.99 0.34 3.98 0 5 C0 3.35 0 1.7 0 0 Z " fill="#2C2C2C" transform="translate(305,505)"/>
<path d="M0 0 C1.98 0.99 1.98 0.99 4 2 C3.67 3.98 3.34 5.96 3 8 C2.01 7.34 1.02 6.68 0 6 C0.33 5.01 0.66 4.02 1 3 C0.67 2.01 0.34 1.02 0 0 Z " fill="#111113" transform="translate(125,390)"/>
<path d="M0 0 C1.32 0.33 2.64 0.66 4 1 C3.01 1.495 3.01 1.495 2 2 C0.86649466 4.01669827 0.86649466 4.01669827 0 6 C0 5.34 0 4.68 0 4 C-0.66 4 -1.32 4 -2 4 C-2.33 4.66 -2.66 5.32 -3 6 C-3.33 5.01 -3.66 4.02 -4 3 C-2.68 2.67 -1.36 2.34 0 2 C0 1.34 0 0.68 0 0 Z " fill="#303032" transform="translate(182,94)"/>
<path d="M0 0 C0.33 0.66 0.66 1.32 1 2 C1.99 1.67 2.98 1.34 4 1 C3.34 2.32 2.68 3.64 2 5 C0.68 5 -0.64 5 -2 5 C-1.125 1.125 -1.125 1.125 0 0 Z " fill="#020204" transform="translate(610,644)"/>
<path d="M0 0 C0.33 0 0.66 0 1 0 C1 1.65 1 3.3 1 5 C-0.32 5 -1.64 5 -3 5 C-3 5.66 -3 6.32 -3 7 C-3.66 6.67 -4.32 6.34 -5 6 C-3.35830472 3.97945196 -1.69088222 1.97956942 0 0 Z " fill="#2F3031" transform="translate(669,592)"/>
<path d="M0 0 C0.66 0.99 1.32 1.98 2 3 C0.02 3.99 0.02 3.99 -2 5 C-1.125 1.125 -1.125 1.125 0 0 Z M-4 5 C-3.01 5.33 -2.02 5.66 -1 6 C-1.99 6.66 -2.98 7.32 -4 8 C-4 7.01 -4 6.02 -4 5 Z " fill="#232425" transform="translate(681,574)"/>
<path d="M0 0 C2.475 0.99 2.475 0.99 5 2 C3.625 3.5 3.625 3.5 2 5 C1.34 5 0.68 5 0 5 C-0.5625 3.0625 -0.5625 3.0625 -1 1 C-0.67 0.67 -0.34 0.34 0 0 Z " fill="#171819" transform="translate(620,508)"/>
<path d="M0 0 C-0.45375 0.433125 -0.9075 0.86625 -1.375 1.3125 C-3.20024334 3.10798342 -3.20024334 3.10798342 -5 6 C-5 5.01 -5 4.02 -5 3 C-5.66 3 -6.32 3 -7 3 C-7 2.34 -7 1.68 -7 1 C-4.53721199 -0.231394 -2.7204945 -0.07159196 0 0 Z " fill="#28282A" transform="translate(162,354)"/>
<path d="M0 0 C0 1.65 0 3.3 0 5 C-1.98 5.66 -3.96 6.32 -6 7 C-2.86206897 0 -2.86206897 0 0 0 Z " fill="#222224" transform="translate(190,304)"/>
<path d="M0 0 C0.33 0.99 0.66 1.98 1 3 C0.34 3 -0.32 3 -1 3 C-1.33 4.32 -1.66 5.64 -2 7 C-3.32 6.34 -4.64 5.68 -6 5 C-5.34 5 -4.68 5 -4 5 C-4 4.34 -4 3.68 -4 3 C-3.34 3 -2.68 3 -2 3 C-1.67 2.34 -1.34 1.68 -1 1 C-0.67 0.67 -0.34 0.34 0 0 Z " fill="#222325" transform="translate(232,266)"/>
<path d="M0 0 C0 0.66 0 1.32 0 2 C0.66 2.33 1.32 2.66 2 3 C1.01 4.485 1.01 4.485 0 6 C-0.33 5.01 -0.66 4.02 -1 3 C-1.99 3 -2.98 3 -4 3 C-4 2.34 -4 1.68 -4 1 C-2 0 -2 0 0 0 Z " fill="#191919" transform="translate(482,560)"/>
<path d="M0 0 C0 0.99 0 1.98 0 3 C-0.99 3.33 -1.98 3.66 -3 4 C-3.33 4.99 -3.66 5.98 -4 7 C-4.33 6.34 -4.66 5.68 -5 5 C-5.66 4.67 -6.32 4.34 -7 4 C-6.1028125 3.566875 -6.1028125 3.566875 -5.1875 3.125 C-2.80672208 1.95257974 -2.80672208 1.95257974 0 0 Z " fill="#101010" transform="translate(481,557)"/>
<path d="M0 0 C0.99 0 1.98 0 3 0 C3 1.65 3 3.3 3 5 C1.68 5.33 0.36 5.66 -1 6 C-0.67 4.02 -0.34 2.04 0 0 Z " fill="#2A2A2C" transform="translate(104,548)"/>
<path d="M0 0 C0.99 0.33 1.98 0.66 3 1 C3 2.65 3 4.3 3 6 C1.68 5.67 0.36 5.34 -1 5 C-0.67 3.35 -0.34 1.7 0 0 Z " fill="#313131" transform="translate(107,403)"/>
<path d="M0 0 C0.598125 0.20625 1.19625 0.4125 1.8125 0.625 C1.1525 0.625 0.4925 0.625 -0.1875 0.625 C-0.5175 1.615 -0.8475 2.605 -1.1875 3.625 C-1.8475 3.625 -2.5075 3.625 -3.1875 3.625 C-3.5175 4.285 -3.8475 4.945 -4.1875 5.625 C-4.5175 4.305 -4.8475 2.985 -5.1875 1.625 C-2.1875 -0.375 -2.1875 -0.375 0 0 Z " fill="#2C2D2F" transform="translate(192.1875,319.375)"/>
</svg>
